<svg id="Layer_1" data-name="Layer 1" xmlns="http://www.w3.org/2000/svg" viewBox="0 0 735.72 302.16"><defs><style>.cls-1{fill:#6e6fb4;}</style></defs><title>stm-2row</title><path class="cls-1" d="M759.91,277c-12.61,0-18.35-13.65-18.35-26.33a8.63,8.63,0,0,1,3.72-6.75,8.52,8.52,0,0,1,7.46-1.54c5.58,1.69,5.94,7.44,6.2,11.65.2,3.23.43,5.58,1.51,6.85,4.2-.66,5.64-9,5.64-12.82,0-7.09-.43-15.3-3.56-22.36-2.24-5.16-5.38-10-8.7-15.15-6.46-10-13.14-20.32-13.14-33.31,0-10.86,6.68-25.9,19.22-25.9,8.66,0,21.25,6.59,21.25,16.9,0,8-6.16,8.62-8,8.62-5.06,0-7.19-3.72-8.46-5.94s-1.72-2.76-3.43-2.76c-3.36,0-3.72,7.77-3.72,11.11,0,8.64,5.19,15.83,10.69,23.45a103.69,103.69,0,0,1,7.67,11.69c5.75,10.79,10,28.45,5.83,41.75C778.6,266.14,770.46,277,759.91,277Z" transform="translate(-53.09 -146.56)"/><path class="cls-1" d="M706.37,277.1h-.32c-4.35,0-6.15,0-6.15-89,0-1.66-.82-12.77-1.31-19.41-.29-3.93-.52-7.13-.57-8.07v-1.25a6.88,6.88,0,0,1,2.27-5.63L701,153l1-.32a18.66,18.66,0,0,1,4.11-.52c2.66,0,7.07,0,8.77,6.19a43.47,43.47,0,0,1,1,11.63c0,1.29,0,2.66,0,4.2l.46,20.81c.45,21.12.9,42.91,2.06,64.4,1.7-.18,3.44-.47,5.24-.78a58.38,58.38,0,0,1,9.9-1.08c6.77,0,9.19,4,9.19,7.75a7.33,7.33,0,0,1-6.57,7.42Z" transform="translate(-53.09 -146.56)"/><path class="cls-1" d="M669.92,152.77l-.47,0c-31.27,0-31.27,41.06-31.27,56.52,0,43.18,10.48,65.08,31.12,65.08,16.23,0,23.69-17.72,25.16-33C698.71,184.87,690.45,155.07,669.92,152.77Zm-1,105.77c-11.47,0-13.88-27.11-13.88-49.86,0-4,0-8,.15-12.77,0-8.74,5.33-27.22,11.26-27.22,7.28,0,12.56,28.39,12.56,48.12C679,247.61,673.53,258.54,668.87,258.54Z" transform="translate(-53.09 -146.56)"/><path class="cls-1" d="M606.5,152.77l-.48,0c-31.26,0-31.26,41.06-31.26,56.52,0,43.18,10.47,65.08,31.11,65.08,16.24,0,23.7-17.72,25.17-33C635.28,184.87,627,155.07,606.5,152.77Zm-1.06,105.77c-11.46,0-13.87-27.11-13.87-49.86,0-4,0-8,.15-12.77,0-8.74,5.32-27.22,11.25-27.22,7.29,0,12.57,28.39,12.57,48.12C615.54,247.61,610.1,258.54,605.44,258.54Z" transform="translate(-53.09 -146.56)"/><path class="cls-1" d="M555.1,264.32c-2.52,0-8-1.58-8-6.3l-2.76-87.35c-6.94.29-12.79-.33-13.46-6,.56-10.65,6.41-11.36,19.87-10.57h11.95c8.57.39,12.82,3.44,12.82,9.06a7.49,7.49,0,0,1-7.17,7h-7.79l2.63,87.75C563.15,262.74,557.62,264.32,555.1,264.32Z" transform="translate(-53.09 -146.56)"/><path class="cls-1" d="M459.38,276c-7.16,0-14-.77-16.29-2l-2.21-1.22-.49-3.09-1.6-101.29a9.6,9.6,0,0,1,9.36-9.36h22.92c2.38,0,6.42,2.66,7.74,5.3h0l.44.89.14,1.72c0,5.31-5.34,8.48-10.5,8.48H455.82l.58,39,12.21-1.66c5.78,0,8.09,3.44,8.31,6.38.34,4.51-3.83,8.84-9.28,9.66l-10.91,1.64-.35,30.06h3.23a65.44,65.44,0,0,0,7-.47c4.67-.49,8.72-.91,11.72,1.64a8.44,8.44,0,0,1,2.81,6.16,5.76,5.76,0,0,1-2.95,5.29C474.94,275.1,467,276,459.38,276Z" transform="translate(-53.09 -146.56)"/><path class="cls-1" d="M432.81,177.92c0-15.41-10.52-25.76-26.18-25.76h-1.45c-5.5,0-12.35,0-12.83,10.84l-.54,19.72c-.74,25.81-1.49,52.5-1.49,78.64V274.9l.77,1.1a9.36,9.36,0,0,0,7.85,3.85,7.25,7.25,0,0,0,5.37-2.05c2.17-2.2,2.13-5.13,2.09-8,.15-12.44.85-43.54,1-45.91,0-.56.15-2.31.32-4,2.62.66,4.49,3.59,5.23,12.65l.17,2.85c.44,7.72,1.44,24.84,1.56,29l.16,1c1.46,5.13,6.51,5.13,8.31,5.13,8.08,0,8.48-5.85,8.48-7v-1.16c0-.49-.21-2.59-.45-4.69-.2-1.63-.39-3.27-.42-4-.17-2.24-.21-5-.25-8.1-.18-11.49-.4-25.8-6-33.05a27.2,27.2,0,0,0-2.26-3c6.81-6.65,10.51-17.09,10.51-30Zm-24.48,22.19c.07-4.64.28-9,.48-13.35.28-6,.56-11.91.52-18.47,5.15.55,6.53,7.48,6.53,11.22C415.86,185,413,196.89,408.33,200.11Z" transform="translate(-53.09 -146.56)"/><path class="cls-1" d="M362,146.56c-6.08.61-7.77,7-8.53,9.95l.06,0c-.6,2.89-2.71,17.53-15.45,106.57,0,2.79,2.15,9.5,7.47,9.5,7.57,0,8.27-8.47,8.5-11.25l2.12-14.44H371l3.14,23.89c.2,1.41,1.24,4.7,7.13,4.7,5.37,0,7.08-3.34,8.08-6l.86-.88-1.07-11.55c-3.86-33.69-7.85-68.53-16.5-102.63l-1.5-3.73a9,9,0,0,0-5.78-4m-5.1,82.7,3.88-31.1,4.5,31.3Z" transform="translate(-53.09 -146.56)"/><path class="cls-1" d="M285.94,279.88c-2.5,0-4.11-.7-6.09-3.33l-.59-.78-2.07-10.53c-1.23-7.92-2.37-15.62-3.51-23.31-2.68-18.15-5.47-36.91-8.85-55.41a111.11,111.11,0,0,0-4.57-17.41l-.43-2.23c0-4.09,3.38-7.28,8.21-7.76s8.76,1.89,9.53,5.76c2.88,13.27,5.57,29.7,8.17,45.59.7,4.21,1.37,8.34,2,12.3,0-.36.09-.71.13-1.07.33-2.7.65-5.35,1-7.94a9.16,9.16,0,0,1,7.49-7.7l0-.3.1.27.89-.14c1.5-.14,5.8-.54,8.31,3.4l9,22.37c.89-18.3,2.39-42.52,4.43-71.46l.33-1.37a9.35,9.35,0,0,1,9.8-5.44,8,8,0,0,1,6.92,7.18c.35,3.56-.33,8.65-1,13.57-.31,2.4-.61,4.62-.71,6.21-1.68,21-2.36,42.08-3,62.52-.32,9.75-.63,19.5-1,29.27l-.06,1.55-1.05,1.15a2.86,2.86,0,0,0-.48.73,7.1,7.1,0,0,1-6.17,4l-1.44,0c-6.16,0-7.57-4.84-8.33-7.44-.17-.59-.36-1.22-.6-1.87l-11.13-28.6c-.74,4.63-1.53,8.77-2.28,12.67-1,5-1.89,9.79-2.56,14.86l-.35,1.5c-1,3.71-2.31,8.42-8.66,9.14C286.86,279.86,286.4,279.88,285.94,279.88Z" transform="translate(-53.09 -146.56)"/><path class="cls-1" d="M233.48,264.32c-2.52,0-8-1.58-8-6.3l-2.76-87.35c-7.05.26-12.79-.34-13.47-6,.56-10.65,6.42-11.36,19.87-10.57H241c8.58.39,12.83,3.44,12.83,9.06a7.48,7.48,0,0,1-7.17,7H238.9l2.62,87.75C241.52,262.74,236,264.32,233.48,264.32Z" transform="translate(-53.09 -146.56)"/><path class="cls-1" d="M180.69,269.18a8.82,8.82,0,0,1-8.44-7.12c-1.74-14.12-6.3-61-7-90v-.4c0-7.12,3.59-15.84,20.69-16.88.74,0,1.38,0,2.1-.08a41.4,41.4,0,0,1,9.19.29c7.23,1.38,8.24,6.19,8.33,8.19,0,3.25-2,6.69-7.79,7.22l-2.29-.07c-2.61-.16-10.56-.61-12.53,1.27l-.17,1.66c.47,7.37,1.09,17.37,1.89,25.28,1.42,0,2.87,0,4-.08.33,0,.87-.18,1.49-.32,3.39-.77,8-1.83,11.25.77a6.89,6.89,0,0,1,2.52,5.55c0,8.89-10.82,9.51-17.29,9.89l-1.32.07c-.23,7.44.55,15,1.37,22.93.73,7.24,1.5,14.73,1.56,22.66,0,6-3.4,8.78-6.77,9.12C181.22,269.16,181,269.18,180.69,269.18Z" transform="translate(-53.09 -146.56)"/><path class="cls-1" d="M133.37,152.77l-.48,0c-31.27,0-31.27,41.06-31.27,56.52,0,43.18,10.48,65.08,31.12,65.08,16.23,0,23.7-17.72,25.16-33C162.15,184.87,153.89,155.07,133.37,152.77Zm-1.06,105.77c-11.47,0-13.88-27.11-13.88-49.86,0-4,0-8,.15-12.77,0-8.74,5.33-27.22,11.26-27.22,7.29,0,12.56,28.39,12.56,48.12C142.4,247.61,137,258.54,132.31,258.54Z" transform="translate(-53.09 -146.56)"/><path class="cls-1" d="M77.74,277c-12.61,0-18.35-13.65-18.35-26.33a8.63,8.63,0,0,1,3.72-6.75,8.52,8.52,0,0,1,7.46-1.54c5.58,1.69,5.94,7.44,6.2,11.65.2,3.23.43,5.58,1.51,6.85,4.2-.66,5.64-9,5.64-12.82,0-7.09-.43-15.3-3.56-22.36-2.24-5.16-5.38-10-8.7-15.15-6.46-10-13.14-20.32-13.14-33.31,0-10.86,6.68-25.9,19.22-25.9,8.66,0,21.25,6.59,21.25,16.9,0,8-6.16,8.62-8,8.62-5.06,0-7.19-3.72-8.46-5.94s-1.72-2.76-3.43-2.76c-3.36,0-3.72,7.77-3.72,11.11,0,8.64,5.19,15.83,10.69,23.45a103.69,103.69,0,0,1,7.67,11.69c5.75,10.79,10,28.45,5.82,41.75C96.43,266.14,88.29,277,77.74,277Z" transform="translate(-53.09 -146.56)"/><path class="cls-1" d="M67.63,250.17l0,0v0Z" transform="translate(-53.09 -146.56)"/><path class="cls-1" d="M234,257.7v.19A1.28,1.28,0,0,0,234,257.7Z" transform="translate(-53.09 -146.56)"/><path class="cls-1" d="M322,271.13v.18l0,0c0-.06,0-.11,0-.17Z" transform="translate(-53.09 -146.56)"/><path class="cls-1" d="M288.25,267.17a3.26,3.26,0,0,0-.28.73Z" transform="translate(-53.09 -146.56)"/><path class="cls-1" d="M269.22,166.63a.11.11,0,0,0,0,.05A.11.11,0,0,1,269.22,166.63Z" transform="translate(-53.09 -146.56)"/><path class="cls-1" d="M448.93,269.45v0Z" transform="translate(-53.09 -146.56)"/><path class="cls-1" d="M555.59,257.7v.19A1.28,1.28,0,0,0,555.59,257.7Z" transform="translate(-53.09 -146.56)"/><path class="cls-1" d="M733.71,439.72A33.54,33.54,0,0,1,707,426.45c-12.74-16.46-13.61-44.35-8.81-64.69,2.66-11.58,11.48-38.55,35.5-38.55,5.33,0,11.09,3.68,11.09,9.64a7.49,7.49,0,0,1-2.33,5.57c-3.26,3.14-8.7,2.92-11.64,2.78l-1.63,0c-9.64,0-16,24.86-16,41.3,0,17.4.86,29.53,12.38,39.09,2.09,1.76,5.29,1.54,8.37,1.36,3.73-.24,8.33-.53,10.64,3.63,2.26,3.94,1.21,6.92.39,8.34C742.41,439.25,736.24,439.72,733.71,439.72Z" transform="translate(-53.09 -146.56)"/><path class="cls-1" d="M681.24,447.35h-.19c-4.17-.1-7.2-3-7.2-7L678,331.29c1.91-5.47,5-5.9,8.82-5.9,8.47,0,8.47,6.48,8.47,10.36,0,.28,0,1.08-.09,1.8l-.05.89-4.35,99.38A9.71,9.71,0,0,1,681.24,447.35Z" transform="translate(-53.09 -146.56)"/><path class="cls-1" d="M570.89,447.11c-4.69,0-6.5-2.27-7.78-5.68l-.27-.75v-.81c.31-20.85,0-42.79-1-67.89l-8.17,20.13c-.35,1.5-1.51,3.85-5.17,5-2.71.88-8,1.23-10.4-1.54a11.72,11.72,0,0,1-1.89-3.24l-2.35-7.74c-.76-2.48-1.5-4.93-2.25-7.35-.06,5.14-.06,10.27,0,15.32,0,14.82.06,30.14-1.87,45.13l-.26,2-1.67,1.08a11.24,11.24,0,0,1-6.8,1.69c-1.2,0-3.69,0-5.47-1.79s-1.71-3.87-1.7-5.61c0-1.26,0-2.1.12-3.45.31-5.79,1.13-21.16.9-96.16,0-5,4.13-8.7,8.11-9.4a7.4,7.4,0,0,1,8.58,5l14.24,39c2.54-6.41,5.63-15.15,7.82-21.34,4.11-11.64,6.52-18.35,8-20.84a7.45,7.45,0,0,1,4.79-3.85c2.54-.65,5.42,0,8.55,1.86,3.36.78,3.41,7.89,3.89,72.5.05,5.68.24,11.48.41,17.31.23,7.42.45,14.88.45,22.2A8.89,8.89,0,0,1,570.89,447.11Z" transform="translate(-53.09 -146.56)"/><path class="cls-1" d="M486,444.83c-7.16,0-14-.76-16.29-2l-2.21-1.22L467,438.5l-1.6-101.3a9.59,9.59,0,0,1,9.35-9.35h22.93c2.37,0,6.42,2.66,7.74,5.3h0l.45.89.14,1.72c0,5.31-5.35,8.48-10.51,8.48H482.45l.58,39,12.21-1.66c5.79,0,8.1,3.44,8.31,6.37.35,4.51-3.82,8.85-9.28,9.67l-10.91,1.63L483,429.29h3.22a65.08,65.08,0,0,0,7-.47c4.68-.5,8.72-.91,11.72,1.63a8.44,8.44,0,0,1,2.81,6.17,5.76,5.76,0,0,1-2.94,5.29C501.58,444,493.61,444.83,486,444.83Z" transform="translate(-53.09 -146.56)"/><path class="cls-1" d="M420.83,446.72c-3.45,0-8-1.83-8.62-5.68,0-3.29,0-10.73.1-18.11s.14-14.42.14-16.94c0-7.8.48-38,.83-59.72l.35-23,1.24-1.23c2.41-2.41,5.22-2.41,7.07-2.41,4.37,0,6.68,3.1,7.92,4.76l.85,1.14v1.42c0,6.9-.32,15.27-.64,23.75-.33,8.64-.66,17.4-.66,24.86,0,1.43,0,6.53,0,10,3.93,0,7.85,0,11.72.12,1-16.6,1.44-41.76,1-58.59,0-5.15,3.38-8.29,8-8.29,3.45,0,6.66,2.38,8.29,4.73l.77,1.1v1.34c0,3.2-.43,12.45-.58,15.63-.85,27.71-.71,49.81-.61,65.95.2,31.81.24,38.44-6.72,38.65a8.47,8.47,0,0,1-6-2.22c-3.48-3.38-3.48-9.14-3.48-17.87,0-1.3-.18-7.77-.35-14.25-.11-3.72-.21-7.45-.28-10.22H429v36.66c0,4.81-2.92,8.14-7.45,8.49Z" transform="translate(-53.09 -146.56)"/><path class="cls-1" d="M652,433.19c-2.52,0-8-1.58-8-6.3l-2.76-87.35c-6.94.28-12.79-.33-13.46-6.05.56-10.64,6.41-11.35,19.87-10.56h11.94c8.57.39,12.83,3.43,12.83,9.06a7.48,7.48,0,0,1-7.17,7h-7.79L660,426.76C660,431.61,654.51,433.19,652,433.19Z" transform="translate(-53.09 -146.56)"/><path class="cls-1" d="M391.59,433.19c-2.52,0-8-1.58-8-6.3l-2.76-87.35c-7,.29-12.79-.32-13.47-6,.56-10.65,6.42-11.36,19.87-10.57h11.95c8.57.39,12.82,3.44,12.82,9.06a7.48,7.48,0,0,1-7.17,7H397l2.62,87.75C399.63,431.61,394.11,433.19,391.59,433.19Z" transform="translate(-53.09 -146.56)"/><path class="cls-1" d="M310.62,445.38c-4.69,0-6.5-2.27-7.78-5.68l-.27-.75v-.8c.31-20.86,0-42.79-1-67.9l-8.18,20.13c-.35,1.5-1.51,3.86-5.17,5-2.71.88-8,1.22-10.4-1.55a11.19,11.19,0,0,1-1.88-3.24l-2.36-7.74q-1.12-3.72-2.25-7.34c-.06,5.14-.05,10.26,0,15.31,0,14.82.06,30.14-1.87,45.13l-.25,2-1.68,1.07a11.24,11.24,0,0,1-6.8,1.69c-1.2,0-3.69,0-5.47-1.79s-1.7-3.87-1.7-5.61c0-1.26,0-2.1.12-3.45.31-5.79,1.13-21.16.9-96.16,0-5,4.13-8.7,8.11-9.4a7.42,7.42,0,0,1,8.58,5l14.24,39c2.54-6.4,5.63-15.15,7.82-21.34,4.12-11.64,6.52-18.35,8-20.83a7.42,7.42,0,0,1,4.79-3.85c2.54-.66,5.42-.05,8.55,1.85,3.36.78,3.41,7.89,3.89,72.5.05,5.68.24,11.49.41,17.31.23,7.42.45,14.88.45,22.2A8.89,8.89,0,0,1,310.62,445.38Z" transform="translate(-53.09 -146.56)"/><path class="cls-1" d="M203.85,346.78c0-15.4-10.52-25.75-26.18-25.75h-1.45c-5.51,0-12.36,0-12.83,10.84l-.55,19.72c-.73,25.8-1.49,52.49-1.49,78.64v13.54l.78,1.1a9.34,9.34,0,0,0,7.84,3.85,7.28,7.28,0,0,0,5.38-2.05c2.17-2.2,2.13-5.13,2.08-8,.15-12.44.86-43.55,1-45.91,0-.56.15-2.31.33-4,2.62.66,4.48,3.58,5.22,12.65l.17,2.85c.44,7.72,1.44,24.84,1.57,29l.16,1c1.46,5.14,6.51,5.14,8.31,5.14,8.07,0,8.48-5.85,8.48-7v-1.17c0-.48-.22-2.58-.46-4.68-.19-1.64-.38-3.28-.42-4-.16-2.24-.2-5-.25-8.1-.17-11.5-.4-25.8-6-33.05a28.1,28.1,0,0,0-2.26-3c6.82-6.65,10.52-17.09,10.52-30ZM179.36,369c.08-4.64.28-9,.48-13.36.29-6,.56-11.9.52-18.47,5.15.55,6.54,7.49,6.54,11.22C186.9,353.84,184,365.76,179.36,369Z" transform="translate(-53.09 -146.56)"/><path class="cls-1" d="M609.58,315.4c-6.08.62-7.77,7-8.53,10l.05,0c-.59,2.89-2.7,17.53-15.44,106.57,0,2.8,2.15,9.5,7.47,9.5,7.57,0,8.27-8.47,8.5-11.25l2.12-14.44h14.81l3.14,23.89c.2,1.42,1.24,4.7,7.13,4.7,5.37,0,7.08-3.34,8.08-6l.86-.88L636.7,426c-3.86-33.69-7.85-68.53-16.5-102.63l-1.5-3.73a9,9,0,0,0-5.78-4m-5.1,82.7,3.88-31.1,4.5,31.3Z" transform="translate(-53.09 -146.56)"/><path class="cls-1" d="M349.27,315.4c-6.07.62-7.76,7-8.53,10l.06,0c-.59,2.89-2.7,17.53-15.44,106.57,0,2.8,2.15,9.5,7.46,9.5,7.57,0,8.27-8.47,8.51-11.25l2.12-14.44h14.8l3.15,23.89c.2,1.42,1.24,4.7,7.13,4.7,5.36,0,7.07-3.34,8.07-6l.86-.88L376.4,426c-3.86-33.69-7.85-68.53-16.5-102.63l-1.5-3.73a9,9,0,0,0-5.78-4m-5.11,82.7,3.89-31.1,4.49,31.3Z" transform="translate(-53.09 -146.56)"/><path class="cls-1" d="M68.57,438a8.81,8.81,0,0,1-8.44-7.11c-1.74-14.12-6.3-61-7-90v-.4c0-7.13,3.59-15.84,20.69-16.89.74,0,1.38,0,2.1-.08a40.85,40.85,0,0,1,9.19.3c7.23,1.38,8.24,6.18,8.33,8.19,0,3.25-2,6.69-7.79,7.22l-2.29-.08c-2.61-.16-10.56-.6-12.53,1.27l-.17,1.67c.47,7.37,1.08,17.37,1.89,25.28,1.42,0,2.87,0,4-.09.33,0,.87-.17,1.49-.31,3.39-.77,8-1.83,11.25.76a6.94,6.94,0,0,1,2.52,5.56c0,8.89-10.83,9.51-17.3,9.88l-1.31.08c-.23,7.44.55,15,1.36,22.93.74,7.24,1.51,14.73,1.57,22.66,0,6-3.4,8.78-6.77,9.11A7,7,0,0,1,68.57,438Z" transform="translate(-53.09 -146.56)"/><path class="cls-1" d="M765.34,445.73c-12.61,0-18.34-13.65-18.34-26.32a9.15,9.15,0,0,1,11.17-8.3c5.59,1.69,5.94,7.45,6.2,11.65.2,3.23.44,5.59,1.51,6.85,4.2-.66,5.64-8.95,5.64-12.82,0-7.09-.43-15.29-3.55-22.36-2.25-5.16-5.39-10-8.71-15.14-6.46-10-13.14-20.33-13.14-33.32,0-10.86,6.68-25.89,19.22-25.89,8.66,0,21.25,6.58,21.25,16.89,0,8-6.16,8.62-8,8.62-5.06,0-7.2-3.72-8.47-5.94s-1.71-2.76-3.43-2.76c-3.36,0-3.72,7.77-3.72,11.11,0,8.64,5.19,15.83,10.69,23.45a105.53,105.53,0,0,1,7.67,11.69c5.75,10.79,10,28.45,5.83,41.76C784,434.92,775.89,445.73,765.34,445.73Z" transform="translate(-53.09 -146.56)"/><path class="cls-1" d="M129.67,321.64l-.48,0c-31.27,0-31.27,41.06-31.27,56.52,0,43.18,10.48,65.07,31.12,65.07,16.23,0,23.7-17.71,25.16-33C158.45,353.74,150.19,323.93,129.67,321.64Zm-1.06,105.77c-11.47,0-13.88-27.11-13.88-49.86,0-4,0-8,.15-12.78,0-8.73,5.33-27.22,11.26-27.22,7.29,0,12.56,28.4,12.56,48.12C138.7,416.48,133.27,427.41,128.61,427.41Z" transform="translate(-53.09 -146.56)"/></svg>